<svg xmlns="http://www.w3.org/2000/svg" viewBox="0 0 320 200">
  <!-- Hand-authored illustration (not a photo/generated image - no image-generation tool is available in this environment) depicting the speed_limits model. -->
  <defs>
    <linearGradient id="sky" x1="0" y1="0" x2="0" y2="1">
      <stop offset="0" stop-color="#bfe4f7"/>
      <stop offset="1" stop-color="#eef8fc"/>
    </linearGradient>
  </defs>
<rect width="320" height="200" fill="#eef8fc"/>
<rect width="320" height="124" fill="url(#sky)"/>
<path d="M0,116 Q 80.0,106 160.0,116 T 320,112 V124 H0 Z" fill="#a7d3b6" opacity="0.5"/>
<rect y="122" width="320" height="78" fill="#bfe3ca"/>
<polygon points="127.0,122 193.0,122 310.0,200 10.0,200" fill="#4d5866"/>
<polygon points="127.0,122 129.0,122 16.0,200 10.0,200" fill="#ffffff" opacity="0.85"/>
<polygon points="191.0,122 193.0,122 310.0,200 304.0,200" fill="#ffffff" opacity="0.85"/>
<polygon points="159.4,125.0 160.6,125.0 160.9,132.6 159.1,132.6" fill="#ffffff"/>
<polygon points="158.8,138.8 161.2,138.8 161.5,146.4 158.5,146.4" fill="#ffffff"/>
<polygon points="158.2,152.6 161.8,152.6 162.1,160.2 157.9,160.2" fill="#ffffff"/>
<polygon points="157.7,166.4 162.3,166.4 162.7,174.0 157.3,174.0" fill="#ffffff"/>
<polygon points="157.1,180.2 162.9,180.2 163.2,187.8 156.8,187.8" fill="#ffffff"/>
<rect x="232.5" y="94" width="5" height="56" rx="1.5" fill="#9aa4ad"/>
<rect x="208" y="57" width="54" height="40" rx="6" fill="#ffffff" stroke="#2b2f36" stroke-width="3"/>
<rect x="208" y="57" width="54" height="40" rx="6" fill="none" stroke="#ffffff" stroke-width="1"/>
<text x="235" y="74" text-anchor="middle" font-family="Arial, sans-serif" font-size="9" font-weight="700" fill="#2b2f36">SPEED</text>
<text x="235" y="92" text-anchor="middle" font-family="Arial, sans-serif" font-size="18" font-weight="800" fill="#2b2f36">55</text>
</svg>
